Coordinates
version=1
nRows=14
nColumns=28
inDegrees=yes

Units are S.I. units (second, meters, Newtons, ...)
Angles are in degrees.

endheader
time	pelvis_tilt	pelvis_list	pelvis_rotation	pelvis_tx	pelvis_ty	pelvis_tz	hip_flexion_r	hip_adduction_r	hip_rotation_r	knee_angle_r	ankle_angle_r	subtalar_angle_r	mtp_angle_r	hip_flexion_l	hip_adduction_l	hip_rotation_l	knee_angle_l	socket_flexion	socket_adduction	socket_rotation	socket_tx	socket_ty	socket_tz	foot_flex	lumbar_extension	lumbar_bending	lumbar_rotation
      0.27083333	     -1.91005766	      4.31401023	      2.42832568	     -0.41825966	      0.98381710	      0.24079232	     17.04022904	     -6.97469074	      2.57870577	    -63.11633237	    -11.55992975	    -14.07595220	     12.75907011	     11.89204116	      8.19908500	      5.10515792	    -26.22586282	     -5.47848053	      0.00000000	      0.00000000	      0.00000000	      0.00000000	      0.00000000	      4.52763864	     -7.01100496	     -7.34130377	     -5.75995574
      0.27500000	     -1.16981498	      4.41126357	      2.21073191	     -0.41180751	      0.98632987	      0.24071118	     16.79975131	     -7.00313730	      2.65654348	    -62.81358571	    -10.69495256	    -14.64395901	     11.04786229	      9.92480653	      8.19157610	      5.12862332	    -24.13548279	     -4.37412520	      0.00000000	      0.00000000	      0.00000000	      0.00000000	      0.00000000	      4.66310330	     -7.76016164	     -7.38400807	     -6.13329193
      0.27916667	     -1.12150626	      4.17545406	      2.21602422	     -0.40631728	      0.98728348	      0.24006569	     17.45346307	     -6.77138974	      2.52536373	    -62.66352918	     -9.90878565	    -14.95920526	     11.00288514	      9.37660654	      7.95643204	      5.16741004	    -23.90348199	     -4.40554109	      0.00000000	      0.00000000	      0.00000000	      0.00000000	      0.00000000	      4.68615777	     -7.79432054	     -7.05288206	     -6.11158670
      0.28333333	     -0.59872773	      4.09393254	      2.03729216	     -0.40005474	      0.98930187	      0.23997498	     17.42519213	     -6.54285852	      2.63763593	    -62.29632649	     -8.73497133	    -15.35272819	      9.16976907	      7.81007076	      7.78708131	      5.19986127	    -22.29905104	     -3.62052710	      0.00000000	      0.00000000	      0.00000000	      0.00000000	      0.00000000	      4.82842318	     -8.30144554	     -6.94211965	     -6.18353872
      0.28750000	     -0.58693994	      3.86372604	      2.07501182	     -0.39457760	      0.99016008	      0.23937713	     18.06931993	     -6.29967243	      2.49381325	    -62.03896070	     -7.95459552	    -15.71149692	      9.14548302	      7.30657719	      7.54943457	      5.22921006	    -22.05511443	     -3.63391972	      0.00000000	      0.00000000	      0.00000000	      0.00000000	      0.00000000	      4.80867188	     -8.28672896	     -6.62338962	     -6.24155000
      0.29166667	     -0.57767200	      3.63676027	      2.09322059	     -0.38893685	      0.99103853	      0.23883491	     18.67086053	     -6.02671423	      2.39505847	    -61.71228907	     -7.14695727	    -16.13258273	      9.07969566	      6.74655572	      7.31519001	      5.32931085	    -21.70331586	     -3.61171816	      0.00000000	      0.00000000	      0.00000000	      0.00000000	      0.00000000	      4.85567767	     -8.26231227	     -6.32184148	     -6.36346679
      0.29583333	     -0.55470709	      3.40214179	      2.13560147	     -0.38331996	      0.99196466	      0.23830502	     19.21390361	     -5.73202578	      2.29238081	    -61.29491516	     -6.33026843	    -16.60224111	      8.95895044	      6.15703394	      7.06210060	      5.41102299	    -21.25900852	     -3.49900016	      0.00000000	      0.00000000	      0.00000000	      0.00000000	      0.00000000	      4.87393267	     -8.25711157	     -6.01085192	     -6.52531958
      0.30000000	     -0.52376521	      3.35413880	      2.17871814	     -0.37824928	      0.99262701	      0.23768687	     19.84593195	     -5.69350689	      2.22918339	    -60.93709212	     -6.19815255	    -16.67545399	      8.94019918	      5.72710582	      7.03513581	      5.44274431	    -21.21084748	     -3.60495231	      0.00000000	      0.00000000	      0.00000000	      0.00000000	      0.00000000	      4.91251168	     -8.37928092	     -5.96727265	     -6.55236020
      0.30416667	      0.33416258	      3.07840235	      2.00430751	     -0.37124209	      0.99548092	      0.23771070	     19.12791970	     -5.17045360	      2.25614247	    -60.02253901	     -5.07015872	    -17.98174943	      6.75944353	      3.31918403	      6.59321488	      5.62683969	    -18.19203103	     -1.92234979	      0.00000000	      0.00000000	      0.00000000	      0.00000000	      0.00000000	      4.98260093	     -9.13674112	     -5.52167201	     -7.16174438
      0.30833333	      0.31209221	      2.88335106	      2.00569974	     -0.36566028	      0.99610973	      0.23713966	     19.71534937	     -4.94723087	      2.14586028	    -59.52618487	     -4.47317918	    -18.18849907	      6.71166996	      2.83663325	      6.39759467	      5.63641134	    -17.99117214	     -2.03392564	      0.00000000	      0.00000000	      0.00000000	      0.00000000	      0.00000000	      4.97808370	     -9.06975672	     -5.26329520	     -7.11537148
      0.31250000	      0.76360303	      2.64807058	      1.86356811	     -0.35963547	      0.99785936	      0.23706669	     19.59762724	     -4.49907985	      2.25213098	    -58.73225482	     -3.49832977	    -18.56984834	      4.72942373	      1.32731989	      6.06169664	      5.68776657	    -16.11609187	     -0.97473277	      0.00000000	      0.00000000	      0.00000000	      0.00000000	      0.00000000	      5.06033670	     -9.53453298	     -4.97694930	     -7.17648697
      0.31666667	      0.70701936	      2.42616390	      1.90023667	     -0.35420134	      0.99842758	      0.23653683	     20.15541803	     -4.22012678	      2.14721006	    -58.08042207	     -2.87098087	    -18.82313456	      4.68710818	      0.92240429	      5.83216883	      5.70587851	    -15.95122855	     -1.06553285	      0.00000000	      0.00000000	      0.00000000	      0.00000000	      0.00000000	      4.99641292	     -9.45452327	     -4.69822346	     -7.18231646
      0.32083333	      0.80243157	      2.14493406	      1.96925067	     -0.34841800	      0.99934832	      0.23595789	     20.43064033	     -3.85321551	      2.01825030	    -57.27792626	     -2.40622335	    -19.32913255	      3.87491452	      0.11682503	      5.51405051	      5.85579561	    -15.08816380	     -0.71150754	      0.00000000	      0.00000000	      0.00000000	      0.00000000	      0.00000000	      5.05549216	     -9.52688899	     -4.27700399	     -7.54343271
      0.32500000	      0.75705100	      1.91377884	      2.01302778	     -0.34311505	      0.99990208	      0.23554856	     20.92719339	     -3.51806380	      1.96588998	    -56.50911073	     -1.72611449	    -19.62936879	      3.79388118	     -0.28296668	      5.26207971	      5.90874640	    -14.89477645	     -0.73590635	      0.00000000	      0.00000000	      0.00000000	      0.00000000	      0.00000000	      5.00259866	     -9.48037717	     -4.01948195	     -7.53398802
